<svg fill="#c83619" xmlns="http://www.w3.org/2000/svg" xmlns:xlink="http://www.w3.org/1999/xlink" viewBox="0 0 108.364 108.364">
<path d="M54.182,0C24.258,0,0,24.258,0,54.182c0,29.924,24.258,54.183,54.182,54.183c29.923,0,54.182-24.259,54.182-54.183
			C108.364,24.258,84.105,0,54.182,0z M68.713,34.122c4.797,0,8.701,3.903,8.701,8.701c0,1.381-1.119,2.5-2.5,2.5
			s-2.5-1.119-2.5-2.5c0-2.041-1.66-3.701-3.701-3.701c-2.042,0-3.703,1.66-3.703,3.701c0,1.381-1.119,2.5-2.5,2.5
			s-2.5-1.119-2.5-2.5C60.01,38.025,63.914,34.122,68.713,34.122z M40.991,34.096c4.797,0,8.701,3.903,8.701,8.701
			c0,1.381-1.119,2.5-2.5,2.5c-1.381,0-2.5-1.119-2.5-2.5c0-2.041-1.66-3.701-3.701-3.701c-2.042,0-3.703,1.66-3.703,3.701
			c0,1.381-1.119,2.5-2.5,2.5s-2.5-1.119-2.5-2.5C32.287,37.999,36.192,34.096,40.991,34.096z M76.607,79.098
			c-1.521,0.66-3.285-0.041-3.943-1.562c-2.895-6.689-9.73-11.012-17.421-11.012c-7.868,0-14.747,4.32-17.523,11.005
			c-0.479,1.153-1.596,1.85-2.771,1.85c-0.384,0-0.773-0.073-1.15-0.229c-1.53-0.637-2.255-2.393-1.62-3.922
			c3.71-8.932,12.764-14.703,23.064-14.703c10.084,0,19.084,5.742,22.927,14.63C78.828,76.674,78.128,78.439,76.607,79.098z"/>
</svg>